<svg width="16" height="17" viewBox="0 0 16 17" fill="none" xmlns="http://www.w3.org/2000/svg">
    <mask id="mask0_40_14" style="mask-type:alpha" maskUnits="userSpaceOnUse" x="0" y="0" width="16" height="17">
        <rect y="0.5" width="16" height="16" fill="#ffffff"/>
    </mask>
    <g mask="url(#mask0_40_14)">
        <path d="M7.53341 13.3667C7.41119 13.2445 7.34719 13.0889 7.34141 12.9C7.33608 12.7111 7.39453 12.5556 7.51675 12.4333L10.7834 9.16668H3.33341C3.14453 9.16668 2.98608 9.10268 2.85808 8.97468C2.73053 8.84712 2.66675 8.6889 2.66675 8.50001C2.66675 8.31112 2.73053 8.15268 2.85808 8.02468C2.98608 7.89712 3.14453 7.83335 3.33341 7.83335H10.7834L7.51675 4.56668C7.39453 4.44446 7.33608 4.2889 7.34141 4.10001C7.34719 3.91112 7.41119 3.75557 7.53341 3.63335C7.65564 3.51112 7.81119 3.45001 8.00008 3.45001C8.18897 3.45001 8.34453 3.51112 8.46675 3.63335L12.8667 8.03335C12.9334 8.0889 12.9807 8.15823 13.0087 8.24135C13.0363 8.3249 13.0501 8.41112 13.0501 8.50001C13.0501 8.5889 13.0363 8.67223 13.0087 8.75001C12.9807 8.82779 12.9334 8.90001 12.8667 8.96668L8.46675 13.3667C8.34453 13.4889 8.18897 13.55 8.00008 13.55C7.81119 13.55 7.65564 13.4889 7.53341 13.3667Z" fill="#ffffff"/>
    </g>
</svg>
