<svg width="64" height="64" viewBox="0 0 64 64" fill="none" xmlns="http://www.w3.org/2000/svg">
<mask id="mask0_270_9" style="mask-type:alpha" maskUnits="userSpaceOnUse" x="0" y="0" width="64" height="64">
<rect width="64" height="64" fill="#D9D9D9"/>
</mask>
<g mask="url(#mask0_270_9)">
<path d="M31.3333 50.0001C31.111 49.7779 30.9999 49.5556 30.9999 49.3334C30.9999 49.1112 31.111 48.889 31.3333 48.6667L47.0666 32.9334H14.2666C13.9999 32.9334 13.7777 32.8445 13.5999 32.6667C13.4221 32.489 13.3333 32.2667 13.3333 32.0001C13.3333 31.7334 13.4221 31.5112 13.5999 31.3334C13.7777 31.1556 13.9999 31.0667 14.2666 31.0667H47.0666L31.3333 15.3334C31.111 15.1112 30.9999 14.889 30.9999 14.6667C30.9999 14.4445 31.111 14.2223 31.3333 14.0001C31.5555 13.7779 31.7777 13.6667 31.9999 13.6667C32.2221 13.6667 32.4444 13.7779 32.6666 14.0001L49.2666 30.6001C49.4888 30.8223 49.6444 31.0445 49.7333 31.2668C49.8221 31.489 49.8666 31.7334 49.8666 32.0001C49.8666 32.2223 49.8221 32.4552 49.7333 32.6987C49.6444 32.9441 49.4888 33.1779 49.2666 33.4001L32.6666 50.0001C32.4444 50.2223 32.2221 50.3334 31.9999 50.3334C31.7777 50.3334 31.5555 50.2223 31.3333 50.0001Z" fill="#E5D0C9"/>
</g>
</svg>
