<svg width="32" height="32" viewBox="0 0 32 32" fill="none" xmlns="http://www.w3.org/2000/svg">
<mask id="mask0_270_218" style="mask-type:alpha" maskUnits="userSpaceOnUse" x="0" y="0" width="32" height="32">
<rect width="32" height="32" fill="#D9D9D9"/>
</mask>
<g mask="url(#mask0_270_218)">
<path d="M16.0004 17.4L9.23369 24.1667C9.05591 24.3444 8.82836 24.4387 8.55102 24.4493C8.2728 24.4609 8.03369 24.3667 7.83369 24.1667C7.63369 23.9667 7.53369 23.7333 7.53369 23.4667C7.53369 23.2 7.63369 22.9667 7.83369 22.7667L14.6004 16L7.83369 9.23333C7.65591 9.05555 7.56169 8.82755 7.55102 8.54933C7.53947 8.27199 7.63369 8.03333 7.83369 7.83333C8.03369 7.63333 8.26702 7.53333 8.53369 7.53333C8.80036 7.53333 9.03369 7.63333 9.23369 7.83333L16.0004 14.6L22.767 7.83333C22.9448 7.65555 23.1728 7.56088 23.451 7.54933C23.7284 7.53866 23.967 7.63333 24.167 7.83333C24.367 8.03333 24.467 8.26666 24.467 8.53333C24.467 8.79999 24.367 9.03333 24.167 9.23333L17.4004 16L24.167 22.7667C24.3448 22.9444 24.439 23.172 24.4497 23.4493C24.4612 23.7275 24.367 23.9667 24.167 24.1667C23.967 24.3667 23.7337 24.4667 23.467 24.4667C23.2004 24.4667 22.967 24.3667 22.767 24.1667L16.0004 17.4Z" fill="#9F8F8A"/>
</g>
</svg>
