<svg width="20" height="20" viewBox="0 0 20 20" fill="none" xmlns="http://www.w3.org/2000/svg">
<mask id="mask0_304_1359" style="mask-type:alpha" maskUnits="userSpaceOnUse" x="0" y="0" width="20" height="20">
<rect width="20" height="20" fill="#D9D9D9"/>
</mask>
<g mask="url(#mask0_304_1359)">
<path d="M9.06251 16.25H5.33334C5.12501 16.25 4.94806 16.1772 4.80251 16.0317C4.6564 15.8856 4.58334 15.7083 4.58334 15.5V9.66667H3.66667C3.48612 9.66667 3.36473 9.58333 3.30251 9.41667C3.23973 9.25 3.27778 9.11111 3.41667 9L9.50001 3.52083C9.6389 3.38194 9.80556 3.3125 10 3.3125C10.1945 3.3125 10.3542 3.36806 10.4792 3.47917L13.2292 5.97917V4.5625C13.2292 4.38194 13.2917 4.2325 13.4167 4.11417C13.5417 3.99639 13.6875 3.9375 13.8542 3.9375H14.5417C14.7083 3.9375 14.8542 3.99639 14.9792 4.11417C15.1042 4.2325 15.1667 4.38194 15.1667 4.5625V7.70833L16.5833 9C16.7222 9.11111 16.7606 9.25 16.6983 9.41667C16.6356 9.58333 16.5139 9.66667 16.3333 9.66667H15.4167V15.5C15.4167 15.7083 15.3439 15.8856 15.1983 16.0317C15.0522 16.1772 14.875 16.25 14.6667 16.25H10.9375V11.5625H9.06251V16.25ZM5.83334 15H7.81251V11.0833C7.81251 10.8611 7.88528 10.6769 8.03084 10.5308C8.17695 10.3853 8.36112 10.3125 8.58334 10.3125H11.4167C11.6389 10.3125 11.8231 10.3853 11.9692 10.5308C12.1147 10.6769 12.1875 10.8611 12.1875 11.0833V15H14.1667V8.5L10 4.75L5.83334 8.5V15ZM8.41667 8.35417H11.5833C11.5833 7.9375 11.4236 7.59361 11.1042 7.3225C10.7847 7.05194 10.4167 6.91667 10 6.91667C9.58334 6.91667 9.21529 7.04861 8.89584 7.3125C8.5764 7.57639 8.41667 7.92361 8.41667 8.35417Z" fill="#9F8F8A"/>
</g>
</svg>
