<svg width="20" height="20" viewBox="0 0 20 20" fill="none" xmlns="http://www.w3.org/2000/svg">
<mask id="mask0_304_1352" style="mask-type:alpha" maskUnits="userSpaceOnUse" x="0" y="0" width="20" height="20">
<rect width="20" height="20" fill="#D9D9D9"/>
</mask>
<g mask="url(#mask0_304_1352)">
<path d="M7.83385 10C7.83385 8.80343 8.80364 7.83316 10.0003 7.83316C11.1969 7.83316 12.1672 8.80343 12.1672 10C12.1672 11.1966 11.1969 12.1668 10.0003 12.1668C8.80364 12.1668 7.83385 11.1966 7.83385 10ZM6.66245 10C6.66245 11.8434 8.15679 13.3377 10.0003 13.3377C11.8437 13.3377 13.3381 11.8434 13.3381 10C13.3381 8.1566 11.8437 6.66233 10.0003 6.66233C8.15679 6.66233 6.66245 8.1566 6.66245 10ZM12.6902 6.52999C12.69 6.96077 13.0391 7.31013 13.4699 7.3103C13.9007 7.31047 14.2501 6.96139 14.2502 6.53061C14.2504 6.09983 13.9013 5.75047 13.4705 5.7503H13.4702C13.0396 5.7505 12.6905 6.09941 12.6902 6.52999ZM7.37416 15.2908C6.74041 15.262 6.39594 15.1564 6.16703 15.0672C5.86355 14.9491 5.64701 14.8084 5.41934 14.581C5.19168 14.3537 5.05075 14.1374 4.93313 13.8339C4.84389 13.6051 4.73833 13.2606 4.70952 12.6268C4.678 11.9417 4.67171 11.7359 4.67171 10.0001C4.67171 8.26424 4.67852 8.059 4.70952 7.37327C4.73838 6.73955 4.84472 6.39567 4.93313 6.1662C5.05127 5.86272 5.19199 5.6462 5.41934 5.41854C5.6467 5.19088 5.86303 5.04996 6.16703 4.93234C6.39584 4.84311 6.74041 4.73755 7.37416 4.70874C8.05933 4.67723 8.26516 4.67094 10.0003 4.67094C11.7354 4.67094 11.9414 4.67775 12.6271 4.70874C13.2609 4.7376 13.6048 4.84394 13.8343 4.93234C14.1378 5.04996 14.3543 5.1912 14.582 5.41854C14.8096 5.64588 14.95 5.86272 15.0682 6.1662C15.1574 6.395 15.263 6.73955 15.2918 7.37327C15.3233 8.059 15.3296 8.26424 15.3296 10.0001C15.3296 11.7359 15.3233 11.9411 15.2918 12.6268C15.2629 13.2606 15.1568 13.605 15.0682 13.8339C14.95 14.1374 14.8093 14.3539 14.582 14.581C14.3546 14.8082 14.1378 14.9491 13.8343 15.0672C13.6055 15.1565 13.2609 15.262 12.6271 15.2908C11.942 15.3224 11.7361 15.3286 10.0003 15.3286C8.26438 15.3286 8.05913 15.3224 7.37416 15.2908ZM7.32033 3.53936C6.62834 3.57088 6.15549 3.6806 5.74254 3.84128C5.31487 4.00721 4.95283 4.22982 4.59106 4.59101C4.22928 4.9522 4.00723 5.3148 3.84129 5.74245C3.6806 6.15564 3.57088 6.62822 3.53937 7.32018C3.50733 8.01324 3.5 8.23481 3.5 10C3.5 11.7652 3.50733 11.9868 3.53937 12.6798C3.57088 13.3718 3.6806 13.8444 3.84129 14.2576C4.00723 14.6849 4.22933 15.048 4.59106 15.409C4.95278 15.77 5.31487 15.9923 5.74254 16.1587C6.15627 16.3194 6.62834 16.4291 7.32033 16.4606C8.01378 16.4921 8.235 16.5 10.0003 16.5C11.7655 16.5 11.9871 16.4927 12.6802 16.4606C13.3722 16.4291 13.8448 16.3194 14.258 16.1587C14.6854 15.9923 15.0477 15.7702 15.4095 15.409C15.7712 15.0478 15.9928 14.6849 16.1592 14.2576C16.3199 13.8444 16.4302 13.3718 16.4612 12.6798C16.4927 11.9862 16.5 11.7652 16.5 10C16.5 8.23481 16.4927 8.01324 16.4612 7.32018C16.4296 6.62816 16.3199 6.15538 16.1592 5.74245C15.9928 5.31506 15.7707 4.95278 15.4095 4.59101C15.0483 4.22925 14.6854 4.00721 14.2585 3.84128C13.8448 3.6806 13.3722 3.57036 12.6807 3.53936C11.9876 3.50785 11.766 3.5 10.0008 3.5C8.23552 3.5 8.01378 3.50733 7.32033 3.53936Z" fill="#9F8F8A"/>
</g>
</svg>
