<svg width="230" height="102" viewBox="0 0 230 102" fill="none" xmlns="http://www.w3.org/2000/svg">
    <path d="M34 34C34 52.7777 34 47.5469 34 68C15.2223 68 0 52.7777 0 34C0 15.2223 15.2223 0 34 0C34 26.9609 34 15.2223 34 34Z" fill="#EB9B20"/>
    <path d="M34 68C34 49.2223 34 54.4531 34 34C52.7777 34 68 49.2223 68 68C68 86.7777 52.7777 102 34 102C34 75.0391 34 86.7777 34 68Z" fill="#DE5640"/>
    <path d="M34 34C34 25.5 34 27.0938 34 18.9922C34 0.214506 34 7.96875 34 -1.48619e-06C52.7777 -6.65389e-07 68 15.2223 68 34C41.0391 34 52.7777 34 34 34Z" fill="#E47D5B"/>
    <path d="M34 102C34 93.5 34 95.0938 34 86.9922C34 68.2145 34 75.9687 34 68C15.2223 68 6.65389e-07 83.2223 1.48619e-06 102C26.9609 102 15.2223 102 34 102Z" fill="#E47D5B"/>
    <path d="M111 34C111 52.7777 111 47.5469 111 68C92.2223 68 77 52.7777 77 34C77 15.2223 92.2223 0 111 0C111 26.9609 111 15.2223 111 34Z" fill="#EB9B20"/>
    <path d="M111 68C111 49.2223 111 54.4531 111 34C129.778 34 145 49.2223 145 68C145 86.7777 129.778 102 111 102C111 75.0391 111 86.7777 111 68Z" fill="#DE5640"/>
    <path d="M110 34C110 25.5 110 27.0938 110 18.9922C110 0.214506 110 7.96875 110 -1.5299e-06C129.33 -6.84959e-07 145 15.2223 145 34C117.246 34 129.33 34 110 34Z" fill="#E47D5B"/>
    <path d="M111 102C111 93.5 111 95.0938 111 86.9922C111 68.2145 111 75.9687 111 68C92.2223 68 77 83.2223 77 102C103.961 102 92.2223 102 111 102Z" fill="#E47D5B"/>
    <path d="M183 26C183 19.5 183 20.7188 183 14.5234C183 0.164034 183 6.09375 183 -1.09278e-06C196.807 -4.89256e-07 208 11.6406 208 26C188.176 26 196.807 26 183 26Z" fill="#DE5640"/>
    <path d="M183 51C183 44.5 183 45.7188 183 39.5234C183 25.164 183 31.0938 183 25C196.807 25 208 36.6406 208 51C188.176 51 196.807 51 183 51Z" fill="#E47D5B"/>
    <path fill-rule="evenodd" clip-rule="evenodd" d="M182.75 51V76.7656H157.25V25.5C157.25 11.4167 168.667 0 182.75 0V25.5V51Z" fill="#EB9B20"/>
    <path d="M183 76.5C183 90.5833 183 86.6602 183 102C168.641 102 157 90.5833 157 76.5C157 62.4167 168.641 51 183 51C183 71.2207 183 62.4167 183 76.5Z" fill="#EB9B20"/>
    <ellipse cx="219" cy="91.5" rx="11" ry="10.5" fill="#EB9B20"/>
    <path d="M230 91C226.391 91 225.016 91 225.016 91C225.016 91 222.609 91 219 91C219 85.4772 219 83.8125 219 81C225.075 81 230 85.4772 230 91Z" fill="#DE5739"/>
</svg>
