<svg width="1920" height="552" viewBox="0 0 1920 552" fill="none" xmlns="http://www.w3.org/2000/svg">
<rect width="1920" height="552" fill="#F4C9BA"/>
<path d="M-144 552C-87 552 -149.12 552 -47.5001 552C54.1203 552 -8 552 40 552C40 450.38 -42.3796 368 -144 368C-144 435 -144 450.38 -144 552Z" fill="#E47D5B"/>
<path d="M224 552C167 552 229.12 552 127.5 552C25.8797 552 88 552 40 552C40 450.38 122.38 368 224 368C224 435 224 450.38 224 552Z" fill="#E47D5B"/>
<path d="M224 184C167 184 229.12 184 127.5 184C25.8797 184 88 184 40 184C40 285.62 122.38 368 224 368C224 301 224 285.62 224 184Z" fill="#DE5640"/>
<path d="M-144 184C-87 184 -149.12 184 -47.5001 184C54.1203 184 -8 184 40 184C40 285.62 -42.3796 368 -144 368C-144 301 -144 285.62 -144 184Z" fill="#EB9B20"/>
<path d="M40 0C-17 0 45.1204 0 -56.4999 0C-158.12 0 -96 0 -144 0C-144 101.62 -61.6204 184 40 184C40 117 40 101.62 40 0Z" fill="#EB9B20"/>
<path d="M224 184C167 184 229.12 184 127.5 184C25.8797 184 88 184 40 184C40 82.3796 122.38 0 224 0C224 67 224 82.3796 224 184Z" fill="#E47D5B"/>
<path d="M224 368C281 368 218.88 368 320.5 368C422.12 368 360 368 408 368C408 469.62 325.62 552 224 552C224 485 224 469.62 224 368Z" fill="#E47D5B"/>
<path d="M592 368C535 368 597.12 368 495.5 368C393.88 368 456 368 408 368C408 469.62 490.38 552 592 552C592 485 592 469.62 592 368Z" fill="#DE5640"/>
<path d="M408 184C465 184 402.88 184 504.5 184C606.12 184 544 184 592 184C592 285.62 509.62 368 408 368C408 301 408 285.62 408 184Z" fill="#E47D5B"/>
<path d="M224 368C281 368 218.88 368 320.5 368C422.12 368 360 368 408 368C408 266.38 325.62 184 224 184C224 251 224 266.38 224 368Z" fill="#EB9B20"/>
<path d="M224 184C281 184 218.88 184 320.5 184C422.12 184 360 184 408 184C408 82.3796 325.62 0 224 0C224 67 224 82.3796 224 184Z" fill="#DE5640"/>
<path d="M592 0C535 0 597.12 0 495.5 0C393.88 0 456 0 408 0C408 101.62 490.38 184 592 184C592 117 592 101.62 592 0Z" fill="#E47D5B"/>
<path d="M776 552C719 552 781.12 552 679.5 552C577.88 552 640 552 592 552C592 450.38 674.38 368 776 368C776 435 776 450.38 776 552Z" fill="#DE5640"/>
<path d="M960 552C903 552 965.12 552 863.5 552C761.88 552 824 552 776 552C776 450.38 858.38 368 960 368C960 435 960 450.38 960 552Z" fill="#EB9B20"/>
<path d="M960 184C903 184 965.12 184 863.5 184C761.88 184 824 184 776 184C776 285.62 858.38 368 960 368C960 301 960 285.62 960 184Z" fill="#DE5640"/>
<path d="M776 368C719 368 781.12 368 679.5 368C577.88 368 640 368 592 368C592 266.38 674.38 184 776 184C776 251 776 266.38 776 368Z" fill="#EB9B20"/>
<path d="M776 184C719 184 781.12 184 679.5 184C577.88 184 640 184 592 184C592 82.3796 674.38 0 776 0C776 67 776 82.3796 776 184Z" fill="#DE5640"/>
<path d="M960 184C903 184 965.12 184 863.5 184C761.88 184 824 184 776 184C776 82.3796 858.38 0 960 0C960 67 960 82.3796 960 184Z" fill="#E47D5B"/>
<path d="M960 368C1017 368 954.879 368 1056.5 368C1158.12 368 1096 368 1144 368C1144 469.62 1061.62 552 960 552C960 485 960 469.62 960 368Z" fill="#E47D5B"/>
<path d="M1144 552C1201 552 1138.88 552 1240.5 552C1342.12 552 1280 552 1328 552C1328 450.38 1245.62 368 1144 368C1144 435 1144 450.38 1144 552Z" fill="#DE5640"/>
<path d="M1144 368C1201 368 1138.88 368 1240.5 368C1342.12 368 1280 368 1328 368C1328 266.38 1245.62 184 1144 184C1144 251 1144 266.38 1144 368Z" fill="#DE5640"/>
<path d="M960 368C1017 368 954.879 368 1056.5 368C1158.12 368 1096 368 1144 368C1144 266.38 1061.62 184 960 184C960 251 960 266.38 960 368Z" fill="#EB9B20"/>
<path d="M960 184C1017 184 954.879 184 1056.5 184C1158.12 184 1096 184 1144 184C1144 82.3796 1061.62 0 960 0C960 67 960 82.3796 960 184Z" fill="#EB9B20"/>
<path d="M1328 0C1271 0 1333.12 0 1231.5 0C1129.88 0 1192 0 1144 0C1144 101.62 1226.38 184 1328 184C1328 117 1328 101.62 1328 0Z" fill="#E47D5B"/>
<path d="M1512 552C1455 552 1517.12 552 1415.5 552C1313.88 552 1376 552 1328 552C1328 450.38 1410.38 368 1512 368C1512 435 1512 450.38 1512 552Z" fill="#E47D5B"/>
<path d="M1696 368C1639 368 1701.12 368 1599.5 368C1497.88 368 1560 368 1512 368C1512 469.62 1594.38 552 1696 552C1696 485 1696 469.62 1696 368Z" fill="#DE5640"/>
<path d="M1696 368C1639 368 1701.12 368 1599.5 368C1497.88 368 1560 368 1512 368C1512 266.38 1594.38 184 1696 184C1696 251 1696 266.38 1696 368Z" fill="#DE5640"/>
<path d="M1328 368C1385 368 1322.88 368 1424.5 368C1526.12 368 1464 368 1512 368C1512 266.38 1429.62 184 1328 184C1328 251 1328 266.38 1328 368Z" fill="#EB9B20"/>
<path d="M1512 184C1455 184 1517.12 184 1415.5 184C1313.88 184 1376 184 1328 184C1328 82.3796 1410.38 0 1512 0C1512 67 1512 82.3796 1512 184Z" fill="#EB9B20"/>
<path d="M1696 184C1639 184 1701.12 184 1599.5 184C1497.88 184 1560 184 1512 184C1512 82.3796 1594.38 0 1696 0C1696 67 1696 82.3796 1696 184Z" fill="#DE5640"/>
<path d="M1880 552C1823 552 1885.12 552 1783.5 552C1681.88 552 1744 552 1696 552C1696 450.38 1778.38 368 1880 368C1880 435 1880 450.38 1880 552Z" fill="#E47D5B"/>
<path d="M1880 368C1937 368 1874.88 368 1976.5 368C2078.12 368 2016 368 2064 368C2064 469.62 1981.62 552 1880 552C1880 485 1880 469.62 1880 368Z" fill="#EB9B20"/>
<path d="M2064 368C2007 368 2069.12 368 1967.5 368C1865.88 368 1928 368 1880 368C1880 266.38 1962.38 184 2064 184C2064 251 2064 266.38 2064 368Z" fill="#DE5640"/>
<path d="M1696 368C1753 368 1690.88 368 1792.5 368C1894.12 368 1832 368 1880 368C1880 266.38 1797.62 184 1696 184C1696 251 1696 266.38 1696 368Z" fill="#E47D5B"/>
<path d="M1696 184C1753 184 1690.88 184 1792.5 184C1894.12 184 1832 184 1880 184C1880 82.3796 1797.62 0 1696 0C1696 67 1696 82.3796 1696 184Z" fill="#EB9B20"/>
<path d="M2064 184C2007 184 2069.12 184 1967.5 184C1865.88 184 1928 184 1880 184C1880 82.3796 1962.38 0 2064 0C2064 67 2064 82.3796 2064 184Z" fill="#E47D5B"/>
<rect width="1920" height="552" fill="black" fill-opacity="0.3"/>
</svg>
