<svg width="20" height="20" viewBox="0 0 20 20" fill="none" xmlns="http://www.w3.org/2000/svg">
<mask id="mask0_304_512" style="mask-type:alpha" maskUnits="userSpaceOnUse" x="0" y="0" width="20" height="20">
<rect width="20" height="20" fill="#D9D9D9"/>
</mask>
<g mask="url(#mask0_304_512)">
</g>
<g clip-path="url(#clip0_304_512)">
<path d="M8.48253 8.43295C8.48253 8.43295 10.3173 7.54639 12.247 7.54639C14.1767 7.54639 14.8887 8.46417 14.9883 9.35752C15.0879 10.251 14.5748 11.6236 13.051 13.1017C11.5272 14.5799 8.13757 16.5946 5.29419 16.4967C5.29419 16.4967 7.54204 15.6532 8.9986 14.4836C10.4551 13.3141 12.4834 11.697 12.2656 9.67572C11.8796 7.6465 8.81054 8.30195 8.48263 8.43295H8.48253Z" fill="#9F8F8A"/>
<path d="M10.1867 9.86464C10.1867 9.86464 8.94068 10.6079 7.26258 10.6079C5.58448 10.6079 5.00001 9.38798 5.00001 8.80799C5.00001 8.228 4.98113 7.36813 6.69688 5.64828C8.73659 3.83284 11.1466 3.5 11.1466 3.5C11.1466 3.5 7.48331 4.58808 6.89418 7.58148C6.39323 10.2463 9.50962 9.90124 10.1867 9.86464Z" fill="#9F8F8A"/>
<path d="M13.3259 6.19781C13.9634 5.85964 14.2519 5.10127 13.9702 4.50393C13.6886 3.90659 12.9434 3.6965 12.3059 4.03467C11.6684 4.37283 11.3799 5.13121 11.6616 5.72855C11.9432 6.32588 12.6883 6.53598 13.3259 6.19781Z" fill="#9F8F8A"/>
</g>
<defs>
<clipPath id="clip0_304_512">
<rect width="10" height="13" fill="white" transform="translate(5 3.5)"/>
</clipPath>
</defs>
</svg>
