<svg width="15" height="18" viewBox="0 0 15 18" fill="none" xmlns="http://www.w3.org/2000/svg">
    <g clip-path="url(#clip0_155_134)">
        <path d="M5.22367 6.83009C5.22367 6.83009 7.97587 5.60254 10.8704 5.60254C13.7649 5.60254 14.833 6.87332 14.9823 8.11026C15.1317 9.34735 14.3621 11.2479 12.0764 13.2946C9.79062 15.3413 4.70624 18.1309 0.441162 17.9952C0.441162 17.9952 3.81294 16.8273 5.99777 15.2079C8.1826 13.5886 11.225 11.3495 10.8983 8.55084C10.3193 5.74115 5.71569 6.6487 5.22383 6.83009H5.22367Z" fill="#55423D"/>
        <path d="M7.78012 8.81257C7.78012 8.81257 5.91102 9.84174 3.39387 9.84174C0.876716 9.84174 1.31255e-05 8.15259 1.31255e-05 7.34952C1.31255e-05 6.54646 -0.0283019 5.35587 2.54533 2.97454C5.60488 0.460855 9.21993 0 9.21993 0C9.21993 0 3.72497 1.50657 2.84127 5.65128C2.08985 9.34109 6.76443 8.86325 7.78012 8.81257Z" fill="#55423D"/>
        <path d="M12.4889 3.73545C13.4452 3.26722 13.8779 2.21716 13.4554 1.39008C13.033 0.562995 11.9153 0.272091 10.959 0.740324C10.0027 1.20856 9.57002 2.25862 9.99248 3.0857C10.4149 3.91278 11.5326 4.20368 12.4889 3.73545Z" fill="#55423D"/>
    </g>
    <defs>
        <clipPath id="clip0_155_134">
            <rect width="15" height="18" fill="white"/>
        </clipPath>
    </defs>
</svg>
