<svg width="80" height="52" viewBox="0 0 80 52" fill="none" xmlns="http://www.w3.org/2000/svg">
<path d="M52.6748 16.9302C52.5782 17.0264 52.4816 17.1202 52.3802 17.2211C46.7383 22.6955 39.6426 24.5611 36.5294 21.3852C35.1117 19.9379 34.7639 17.6924 35.3411 15.1608C16.312 17.351 1.34283 32.8123 0 52H80C78.8576 35.6011 67.7575 21.9285 52.6748 16.9302M22.6132 37.5389C20.5338 37.5389 18.8504 35.8583 18.8504 33.7932C18.8504 31.728 20.5338 30.0474 22.6132 30.0474C24.6927 30.0474 26.376 31.7232 26.376 33.7932C26.376 35.8632 24.6903 37.5389 22.6132 37.5389ZM54.6456 37.5389C52.5661 37.5389 50.8827 35.8583 50.8827 33.7932C50.8827 31.728 52.5661 30.0474 54.6456 30.0474C56.725 30.0474 58.4084 31.7232 58.4084 33.7932C58.4084 35.8632 56.725 37.5389 54.6456 37.5389Z" fill="#B52426"/>
<path d="M52.6747 16.9302C48.6921 15.6103 44.4318 14.8939 39.9999 14.8939C38.4228 14.8939 36.8675 14.9852 35.3411 15.1607C36.027 12.1363 38.0316 8.69589 41.1012 5.7147C46.7407 0.237982 53.8388 -1.62766 56.952 1.55066C60.012 4.67129 58.0871 11.4968 52.6747 16.9302Z" fill="#B52426"/>
</svg>
