<svg width="80" height="68" viewBox="0 0 80 68" fill="none" xmlns="http://www.w3.org/2000/svg">
<path d="M59.361 28.8134L31.971 56.3097C31.2463 57.0372 30.0707 57.0372 29.345 56.3097L25.6156 52.5658L54.3196 23.7524L49.6651 19.0798L20.962 47.8932L7.92346 34.8041C7.19882 34.0766 7.19882 32.8964 7.92346 32.1679L35.3135 4.67261L30.659 0L1.95593 28.8134L1.90782 28.8617C-0.635941 31.4153 -0.635941 35.5567 1.90782 38.1113L1.95593 38.1596L16.3075 52.5668L20.962 57.2394L26.0044 62.3014L26.0525 62.3497C28.5963 64.9033 32.7217 64.9033 35.2654 62.3497L64.0156 33.488L59.361 28.8154V28.8134Z" fill="#455A64"/>
<path d="M53.996 4.86684L53.9479 4.81855C51.4041 2.26491 47.2788 2.26491 44.734 4.81855L44.6859 4.86684L15.9849 33.6812L20.6394 38.3538L48.0285 10.8575C48.7531 10.1301 49.9288 10.1301 50.6544 10.8575L72.077 32.3632C72.8016 33.0906 72.8016 34.2709 72.077 34.9993L44.6869 62.4956L49.3415 67.1683L78.0435 38.3549L78.0916 38.3066C80.6354 35.7529 80.6354 31.6116 78.0916 29.0569L53.996 4.86684Z" fill="#00B8D4"/>
</svg>
