<svg width="76" height="22" viewBox="0 0 76 22" fill="none" xmlns="http://www.w3.org/2000/svg">
<path d="M0.587621 21.6648C0.422674 21.6648 0.278346 21.614 0.154637 21.5125C0.0515454 21.3906 0 21.2585 0 21.1163V0.883655C0 0.721144 0.0618547 0.589103 0.185564 0.487533C0.309274 0.36565 0.443293 0.304709 0.587621 0.304709H3.68036C3.82469 0.304709 3.9484 0.36565 4.05149 0.487533C4.1752 0.589103 4.23706 0.721144 4.23706 0.883655V21.1163C4.23706 21.2585 4.18551 21.3906 4.08242 21.5125C3.97933 21.614 3.84531 21.6648 3.68036 21.6648H0.587621Z" fill="#209BCE"/>
<path d="M12.7861 14.1994C12.7448 14.3213 12.683 14.3823 12.6005 14.3823C12.5386 14.3823 12.4871 14.3112 12.4459 14.169L9.84796 1.00554C9.82734 0.944598 9.81704 0.863341 9.81704 0.761772C9.81704 0.457063 9.94075 0.304709 10.1882 0.304709H13.2809C13.6108 0.304709 13.8067 0.43675 13.8685 0.700831L15.1675 7.8615C15.1881 7.92244 15.1984 8.02401 15.1984 8.16621C15.1984 8.53186 15.1469 8.83657 15.0438 9.08033C14.817 9.58818 14.4458 10.4109 13.9304 11.5485C13.4355 12.6861 13.0541 13.5697 12.7861 14.1994ZM14.3943 21.6648C14.2912 21.6648 14.1984 21.6343 14.1159 21.5734C14.0541 21.4921 14.0232 21.3906 14.0232 21.2687C14.0232 21.1468 14.0541 21.0148 14.1159 20.8726C14.5695 19.6537 15.3015 17.6731 16.3118 14.9307C17.3427 12.1681 18.2087 9.80148 18.9097 7.83102C18.9715 7.66851 19.054 7.53647 19.1571 7.4349C19.2602 7.33333 19.4251 7.28255 19.652 7.28255H22.7138C23.1467 7.28255 23.456 7.46537 23.6416 7.83102C25.0436 11.6704 25.8168 13.8135 25.9611 14.2604C26.0642 14.5245 26.1364 14.6565 26.1776 14.6565C26.2395 14.6565 26.3013 14.5143 26.3632 14.2299C26.6312 12.6048 27.0024 10.289 27.4766 7.28255C27.9508 4.25577 28.291 2.07202 28.4972 0.731301C28.5384 0.56879 28.6003 0.457063 28.6828 0.396122C28.7858 0.33518 28.9199 0.304709 29.0848 0.304709H32.2085C32.3322 0.304709 32.425 0.375808 32.4868 0.518006C32.5487 0.660203 32.559 0.822714 32.5178 1.00554L28.8065 21.2687C28.7446 21.5328 28.559 21.6648 28.2498 21.6648H24.9096C24.7447 21.6648 24.6106 21.6445 24.5076 21.6039C24.4251 21.5429 24.3632 21.4312 24.322 21.2687C24.0333 20.4358 23.5591 19.0646 22.8993 17.1551C22.2602 15.2456 21.7756 13.7627 21.4457 12.7064C21.4251 12.6048 21.3839 12.554 21.322 12.554C21.2808 12.554 21.2396 12.6048 21.1983 12.7064L18.3221 21.2687C18.2602 21.5328 18.0643 21.6648 17.7345 21.6648H14.3943Z" fill="#209BCE"/>
<path d="M39.437 19.4404C38.1587 18.3638 37.1793 17.084 36.4989 15.6011C35.8185 14.0979 35.4783 12.5439 35.4783 10.9391C35.4783 9.67959 35.6845 8.4506 36.0969 7.25208C36.5299 6.03324 37.169 4.92613 38.0144 3.93075C39.0247 2.71191 40.2102 1.77747 41.571 1.12742C42.9318 0.457064 44.3648 0.0812559 45.8699 0H45.9318C46.0967 0 46.2308 0.0609418 46.3339 0.182825C46.4576 0.304708 46.5297 0.457062 46.5503 0.639888V3.29086C46.5503 3.67682 46.3339 3.89012 45.9009 3.93075C44.973 4.012 44.0865 4.27608 43.2411 4.72299C42.3958 5.14958 41.6844 5.72853 41.1071 6.45983C39.9937 7.80055 39.437 9.31394 39.437 11C39.437 12.0157 39.6535 13.0009 40.0865 13.9557C40.5195 14.8901 41.138 15.6925 41.9422 16.3629C43.303 17.4598 44.8287 18.0083 46.5194 18.0083C47.5503 18.0083 48.54 17.795 49.4884 17.3684C50.4369 16.9418 51.241 16.3223 51.9008 15.5097C52.4575 14.8596 52.8698 14.1487 53.1379 13.3767C53.4265 12.5845 53.5709 11.7821 53.5709 10.9695C53.5709 9.81164 53.3131 8.735 52.7977 7.73961C52.6946 7.53647 52.643 7.33333 52.643 7.13019C52.643 6.86611 52.7668 6.6325 53.0142 6.42936C53.1791 6.32779 53.4987 6.1145 53.9729 5.78947C54.4471 5.46445 54.7461 5.26131 54.8698 5.18006C55.0348 5.07849 55.1894 5.0277 55.3337 5.0277C55.6636 5.0277 55.911 5.18006 56.076 5.48476C57.0657 7.19113 57.5605 9.02955 57.5605 11C57.5605 12.2798 57.344 13.5291 56.911 14.7479C56.478 15.9464 55.8389 17.0434 54.9935 18.0388C53.9832 19.3186 52.7152 20.3038 51.1895 20.9945C49.6843 21.6648 48.107 22 46.4576 22C45.1586 22 43.9009 21.7867 42.6844 21.3601C41.4679 20.9132 40.3855 20.2733 39.437 19.4404Z" fill="#209BCE"/>
<path d="M62.2992 21.6648C62.1548 21.6648 62.0208 21.614 61.8971 21.5125C61.794 21.3906 61.7425 21.2585 61.7425 21.1163V10.482C61.7425 10.3195 61.794 10.1874 61.8971 10.0859C62.0208 9.96399 62.1548 9.90305 62.2992 9.90305H69.1341C69.9176 9.90305 70.5877 9.62881 71.1444 9.08033C71.7217 8.53186 72.0104 7.87165 72.0104 7.09972C72.0104 6.30748 71.7217 5.63712 71.1444 5.08864C70.5877 4.54017 69.9176 4.26593 69.1341 4.26593H62.2992C62.1548 4.26593 62.0208 4.21514 61.8971 4.11357C61.794 3.99169 61.7425 3.84949 61.7425 3.68698V0.883655C61.7425 0.721144 61.794 0.589103 61.8971 0.487533C62.0208 0.36565 62.1548 0.304709 62.2992 0.304709H69.1341C70.3712 0.304709 71.5155 0.609418 72.5671 1.21884C73.6186 1.82825 74.4536 2.66113 75.0722 3.71745C75.6907 4.75346 76 5.88089 76 7.09972C76 8.31856 75.6907 9.44598 75.0722 10.482C74.4536 11.518 73.6186 12.3407 72.5671 12.9501C71.5155 13.5596 70.3712 13.8643 69.1341 13.8643H65.8558C65.629 13.8643 65.4744 13.8947 65.3919 13.9557C65.3094 14.0166 65.2682 14.1385 65.2682 14.3213V21.1163C65.2682 21.2789 65.2063 21.4109 65.0826 21.5125C64.9795 21.614 64.8455 21.6648 64.6806 21.6648H62.2992Z" fill="#209BCE"/>
</svg>
