<svg width="61" height="80" viewBox="0 0 61 80" fill="none" xmlns="http://www.w3.org/2000/svg">
<path d="M13.9295 74.3483C13.9295 76.3612 13.9144 78.2111 13.8923 79.8498C14.0966 79.0791 14.4066 77.2269 14.525 74.7706V74.7624C14.3242 74.624 14.1257 74.4844 13.9283 74.3413L13.9295 74.3483Z" fill="#292C56"/>
<path d="M55.2726 13.9849C55.3479 13.9223 55.4193 13.8549 55.4862 13.7832C57.1113 12.0237 57.8078 10.8858 57.8078 8.03539C57.8078 6.66653 57.2697 5.35373 56.3118 4.3858C55.354 3.41787 54.0549 2.87409 52.7003 2.87409C49.8795 2.87409 47.1284 4.04712 46.8963 11.7891C46.8963 11.8289 46.8963 11.8676 46.8963 11.9064C46.8208 11.8266 46.6827 9.23069 46.6061 9.15093C43.838 6.25246 40.5197 3.9482 36.8497 2.37606C33.1797 0.803926 29.2335 -0.00375614 25.2474 0.00136699C8.836 0.00136699 0 16.4377 0 33.0219C0 33.3492 7.08323e-07 33.6753 0.0116087 34.0014C0.0116087 34.1022 0.0174118 34.202 0.0197334 34.3028C0.0266982 34.5374 0.0348245 34.7685 0.0441109 34.9961C0.0441109 35.1052 0.0545569 35.2143 0.0592001 35.3222C0.0723559 35.5638 0.0866736 35.8043 0.102151 36.0436C0.107955 36.1304 0.112597 36.2172 0.119562 36.304C0.142778 36.6301 0.169477 36.9558 0.199658 37.2811C0.199658 37.3175 0.207784 37.355 0.211266 37.3914C0.239126 37.6784 0.269692 37.9654 0.302969 38.2524C0.313416 38.3451 0.326184 38.4377 0.336631 38.5304C0.366812 38.765 0.396994 39.0066 0.430657 39.2436C0.443426 39.3363 0.456194 39.4289 0.470124 39.5216C0.509591 39.7922 0.551767 40.0628 0.596651 40.3333C0.604776 40.3814 0.611741 40.4295 0.619866 40.4776C0.675585 40.8049 0.735947 41.131 0.796308 41.4571C0.804434 41.4946 0.812559 41.5333 0.819524 41.5744C0.875242 41.8547 0.935605 42.1339 0.992484 42.4119C1.00873 42.4882 1.02615 42.5644 1.04356 42.6465C1.09928 42.8983 1.1577 43.1494 1.21884 43.3996L1.26759 43.6025C1.42237 44.2391 1.59494 44.869 1.78531 45.4923C1.79576 45.5286 1.80736 45.5638 1.81781 45.599C1.82826 45.6342 1.84799 45.694 1.86308 45.7433C1.86308 45.7515 1.86889 45.7597 1.87121 45.7679C2.28166 42.8851 3.09865 40.0765 4.29728 37.4278V37.3715C3.94904 30.216 8.01184 20.3627 8.47616 19.6588C8.94047 18.955 9.30845 18.7204 9.52087 18.7204C10.4495 18.7204 10.6445 21.0935 10.8953 21.6659C11.146 22.2383 12.0061 22.9433 12.8872 22.9433C13.3269 22.9432 13.7564 22.8096 14.12 22.5597C16.096 20.9105 18.4333 19.7623 20.9373 19.2108C21.9821 18.9761 23.2183 18.8377 23.3344 18.3685C23.4505 17.8993 22.5775 17.1263 21.8811 16.6571C21.1846 16.1879 21.3007 16.1879 19.7336 15.7773C21.3587 15.7773 22.7517 16.833 23.6292 17.7527C26.2596 17.4653 24.667 17.3609 31.7479 17.3609C38.8287 17.3609 47.0449 20.575 52.6318 25.4958C53.7299 26.4624 54.6736 27.6248 55.6023 27.6248C56.5309 27.6248 57.0196 26.67 57.4422 25.5615C57.9544 24.2175 58.2161 22.7894 58.2141 21.3492C58.2141 17.9885 57.2587 15.5451 55.2726 13.9849ZM55.6603 20.2935C55.4767 20.2935 55.2971 20.2384 55.1444 20.1353C54.9917 20.0322 54.8727 19.8856 54.8024 19.7141C54.7321 19.5427 54.7137 19.354 54.7495 19.172C54.7854 18.9899 54.8738 18.8227 55.0037 18.6915C55.1335 18.5602 55.299 18.4709 55.4792 18.4346C55.6593 18.3984 55.846 18.417 56.0157 18.4881C56.1854 18.5591 56.3304 18.6794 56.4325 18.8337C56.5345 18.988 56.589 19.1694 56.589 19.355C56.589 19.6039 56.4911 19.8426 56.317 20.0186C56.1428 20.1946 55.9066 20.2935 55.6603 20.2935Z" fill="#292C56"/>
<path d="M44.9275 73.7901L44.8823 73.8171C44.6484 73.9873 44.4855 74.2394 44.4254 74.5242C44.3653 74.8091 44.4122 75.1064 44.557 75.3582C44.7018 75.6101 44.9342 75.7985 45.2089 75.8867C45.4836 75.975 45.7809 75.9569 46.0431 75.8358L46.0872 75.81C46.2189 75.7336 46.3343 75.6316 46.4269 75.5099C46.5194 75.3883 46.5872 75.2493 46.6264 75.101C46.6655 74.9527 46.6753 74.7981 46.6551 74.646C46.6349 74.4939 46.5851 74.3473 46.5086 74.2147C46.3539 73.9474 46.1008 73.7527 45.8047 73.6732C45.5085 73.5936 45.1932 73.6356 44.9275 73.7901Z" fill="#292C56"/>
<path d="M57.0174 34.9654C54.2926 30.1992 50.3238 26.2815 45.5447 23.6404C40.7656 20.9992 35.3601 19.7363 29.9188 19.9896C24.4775 20.2429 19.2098 22.0026 14.6912 25.0765C10.1726 28.1504 6.57704 32.4202 4.29736 37.4194C4.41344 39.7514 4.45059 41.5989 4.66186 43.3396C5.91369 38.2189 8.59462 33.5693 12.3858 29.9437C12.805 30.0761 13.1905 30.2993 13.5155 30.5977C13.8405 30.8961 14.0971 31.2626 14.2675 31.6716C14.4543 32.1297 14.5067 32.6324 14.4184 33.1198C14.3301 33.6072 14.1048 34.0585 13.7695 34.42L12.4044 35.8945C12.3436 35.9604 12.2906 36.0332 12.2465 36.1115L9.14602 41.5578L6.39028 43.5402C6.14366 43.7168 5.97562 43.9842 5.92241 44.2849C5.86921 44.5855 5.93511 44.8953 6.10589 45.1473L7.13668 46.6722C6.54235 46.7602 6.00954 46.8341 5.6555 46.8728C5.58701 46.8071 5.5162 46.7402 5.44191 46.6722L5.30958 46.549C5.57909 47.4543 5.90913 48.34 6.29742 49.2001C6.60387 49.1613 6.96836 49.1086 7.40598 49.0429C8.3857 48.8962 9.35961 48.732 9.3689 48.7297C10.0271 48.6194 10.5134 47.9496 10.2813 47.1602C10.2697 47.1185 10.2516 47.0789 10.2279 47.0429L8.71304 44.7989L10.8895 43.2259C10.9339 43.1949 10.9715 43.1549 10.9998 43.1086L14.2443 37.3842L15.5211 36.0047C16.159 35.3116 16.587 34.4483 16.7547 33.517C16.9223 32.5857 16.8226 31.6254 16.4672 30.7496C16.0396 29.7082 15.3 28.8283 14.3522 28.2335C19.0956 24.462 24.9396 22.3806 30.9749 22.3133L28.9017 24.9408L21.216 27.6634C21.0615 27.7181 20.9202 27.8052 20.8013 27.9191C20.6825 28.0329 20.5888 28.1708 20.5265 28.3238L18.3802 33.5813C18.3051 33.7652 18.2776 33.9653 18.3001 34.1629C18.3226 34.3605 18.3945 34.5491 18.509 34.7109L21.6432 39.1484C21.194 39.5625 20.7563 40.1654 20.2351 40.9138C20.003 41.2423 19.7894 41.552 19.6396 41.7256C19.5108 41.8769 19.3808 42.0247 19.2519 42.1713C18.5775 42.9385 17.8799 43.7314 17.3842 44.7895C16.2954 47.1191 16.5159 49.8335 17.9588 51.8558C19.3518 53.8182 21.6548 54.8153 24.111 54.5232C24.4937 54.4698 24.8725 54.3915 25.2451 54.2886C26.24 54.0399 26.5557 54.0153 26.8703 54.3179C27.0247 54.4646 27.0397 54.4927 27.0363 54.9901C27.0213 55.3804 27.056 55.7711 27.1396 56.1525C27.3137 56.874 27.7606 57.3725 28.1204 57.7725C28.2841 57.9334 28.4258 58.1157 28.5418 58.3144C28.904 59.1918 28.7461 59.6775 28.4014 60.7414C28.3712 60.8317 28.341 60.9244 28.3108 61.0206C27.7861 62.6628 28.5174 64.2898 29.1628 65.7267C29.3729 66.196 29.5703 66.6335 29.7003 67.0229C30.745 70.1525 31.5262 70.8693 32.1542 71.1578C32.4725 71.3034 32.8182 71.3774 33.1676 71.3748C34.8403 71.3748 36.5862 69.8042 37.3883 68.8094C37.8921 68.1842 38.0163 67.559 38.1068 67.1015C38.131 66.9204 38.181 66.7438 38.2554 66.5772C38.3655 66.3996 38.493 66.2338 38.6361 66.0822C39.0701 65.6324 39.3951 65.0872 39.5857 64.4892C39.776 63.8828 39.9142 63.7338 40.3738 63.2399C40.4528 63.1543 40.5387 63.0628 40.6292 62.9619C42.1754 61.2622 41.7773 59.9637 41.3559 58.5889C41.0007 57.4311 41.6217 56.6921 43.1226 55.2798C43.7727 54.6675 44.4459 54.0341 44.9648 53.274C45.197 52.9408 45.8853 51.9285 45.457 50.9279C45.0368 49.9437 43.97 49.7784 43.1122 49.6458C42.7732 49.593 42.2625 49.5133 42.0988 49.4112C41.3814 48.942 40.938 47.9461 40.5166 46.9877C40.4319 46.7977 40.3483 46.6089 40.2636 46.427C40.1127 46.1009 39.9618 45.7068 39.7992 45.2892C39.3767 44.1842 38.8985 42.9326 38.0836 42.0599C37.3511 41.2763 35.9709 40.8986 34.7521 40.5643C34.3416 40.4666 33.9382 40.3404 33.5449 40.1866C33.4671 40.1481 33.3791 40.1361 33.2941 40.1525C32.5454 40.3086 32.1101 40.4751 31.7967 40.7273C31.6163 40.8784 31.4745 41.0711 31.3835 41.2892C30.9026 41.0322 30.4374 40.7462 29.9905 40.4329C30.0905 40.0539 30.0551 39.6515 29.8907 39.2962C29.2418 37.9109 27.0897 38.0188 26.6648 38.0552C26.4234 38.0763 26.1181 38.0869 25.7954 38.0986C25.2881 38.1162 24.7286 38.1373 24.1702 38.1995L24.6706 36.7918C24.7386 36.6004 24.8636 36.435 25.0284 36.3182C25.1932 36.2014 25.3898 36.139 25.5911 36.1396H27.5691C27.8515 36.1442 28.1262 36.0464 28.3434 35.8639C28.5606 35.6814 28.7059 35.4264 28.7531 35.1449C28.7769 34.9785 28.765 34.8089 28.7182 34.6475C28.6715 34.4861 28.5909 34.3368 28.482 34.2096C28.3731 34.0825 28.2385 33.9805 28.0872 33.9105C27.9359 33.8406 27.7714 33.8043 27.6051 33.8042H26.9306C26.0277 33.8049 25.1398 34.0376 24.3503 34.4804C23.5608 34.9232 22.8957 35.5616 22.4174 36.3355L20.6762 33.8851L22.3873 29.7127L29.9325 27.0523C30.139 26.9786 30.3211 26.8482 30.4583 26.6757L33.8118 22.4435C42.3809 23.2646 50.4461 28.0974 55.0684 36.1514C56.2761 38.2559 57.2001 40.514 57.816 42.8657L57.3215 43.3092C56.9987 43.5994 56.7396 43.9548 56.5608 44.3524C56.3821 44.75 56.2877 45.181 56.2838 45.6177L55.4782 43.3889C55.3586 43.0576 55.1808 42.7509 54.9535 42.4833L53.1775 40.3918C53.0086 40.1934 52.7993 40.0341 52.5639 39.925C52.3285 39.8158 52.0725 39.7594 51.8135 39.7596H49.3457C49.1729 39.7589 49.0023 39.7991 48.8477 39.8769C47.8099 40.4118 47.5847 41.5825 48.1257 42.3977L48.3033 42.6675C47.1617 43.6535 45.8593 44.4315 44.4541 44.9666L42.0442 40.3215V39.2751C42.0443 39.1163 42.0124 38.9592 41.9505 38.8132C41.8887 38.6672 41.7981 38.5354 41.6844 38.4259L39.4092 36.2253C39.3696 36.1874 39.3225 36.1582 39.2711 36.1396L37.1689 35.3936C36.2484 35.0663 35.1955 35.9801 35.7933 37.2634C35.8161 37.3122 35.8485 37.3558 35.8883 37.3917C35.9282 37.4276 35.9749 37.455 36.0255 37.4722L38.1149 38.2135L39.74 39.776V40.7918C39.7402 40.8539 39.7549 40.915 39.783 40.9701L42.8754 46.9526C43.0049 47.201 43.2184 47.3942 43.477 47.4971C43.7356 47.6 44.0222 47.6057 44.2846 47.5133L45.1587 47.1872C47.2032 46.4231 49.0609 45.2229 50.6051 43.6681C50.7947 43.4764 50.9127 43.2243 50.9391 42.9547C50.9656 42.685 50.8988 42.4145 50.7502 42.1889L50.6887 42.0951H51.4258C51.4541 42.095 51.482 42.1011 51.5077 42.1131C51.5333 42.125 51.5561 42.1425 51.5744 42.1643L53.1693 44.0517C53.1849 44.069 53.1967 44.0894 53.2042 44.1115L54.878 48.7613C54.8957 48.8122 54.9233 48.8588 54.9593 48.8986C55.0771 49.0335 55.2215 49.1422 55.3832 49.2178C55.5448 49.2933 55.7203 49.334 55.8984 49.3373C56.2062 49.3372 56.5014 49.2136 56.7191 48.9936L57.4701 48.2347C57.9461 47.7502 58.2783 47.1407 58.4289 46.4751C59.5897 55.8839 55.9402 65.6165 48.2243 71.7361C47.4594 72.3426 47.6521 73.7244 49.0369 73.9133C49.1432 73.9278 49.2509 73.8991 49.3364 73.8335C55.0667 69.4022 59.0058 63.0154 60.4185 55.8649C61.8312 48.7144 60.6211 41.2888 57.0139 34.9737L57.0174 34.9654ZM23.2381 40.8036C23.7558 40.5103 24.9573 40.4669 25.8337 40.4352C26.1819 40.4235 26.5174 40.4118 26.8145 40.386C26.9791 40.3731 27.1445 40.3731 27.309 40.386C27.2346 40.5775 27.2122 40.7857 27.244 40.9889C27.2721 41.1678 27.3408 41.3376 27.4448 41.4852C27.5487 41.6327 27.685 41.7539 27.843 41.8394C28.0601 41.9567 28.3642 42.1596 28.6846 42.3742C29.5912 42.983 30.6196 43.6728 31.5866 43.735C31.882 43.7544 32.1778 43.7049 32.4512 43.5902C32.7246 43.4754 32.9681 43.2986 33.163 43.0734C33.1804 43.0569 33.1955 43.0394 33.2129 43.0241C33.3404 42.9189 33.4458 42.7888 33.5228 42.6417C33.7085 42.6945 33.9035 42.7484 34.1032 42.8024C34.7916 42.9901 36.0696 43.3385 36.3528 43.6399C36.8543 44.1748 37.2455 45.1942 37.5914 46.0927C37.7655 46.5479 37.9304 46.976 38.1161 47.3737C38.195 47.5449 38.2728 47.7256 38.3482 47.898C38.8834 49.1004 39.4905 50.4622 40.7778 51.3091C41.3582 51.6927 42.0779 51.803 42.7094 51.9015L42.9624 51.9414C42.5875 52.4669 42.0535 52.9678 41.4894 53.4957C40.0523 54.8423 38.2647 56.5174 39.0877 59.1907C39.4765 60.4528 39.4951 60.5889 38.8694 61.2728C38.7847 61.3666 38.7058 61.4511 38.6315 61.5308C38.0952 62.1045 37.6727 62.5572 37.3233 63.6669C37.2211 63.9883 37.0911 64.1361 36.8497 64.4083C36.6043 64.6734 36.3868 64.9635 36.2008 65.274C35.9901 65.6593 35.8479 66.0789 35.7806 66.5138C35.7121 66.8657 35.6726 67.0323 35.538 67.1989C35.114 67.704 34.6193 68.1438 34.0695 68.5045C33.524 68.8564 33.2059 68.9009 33.0968 68.8939C32.9737 68.7613 32.5245 68.176 31.8466 66.1514C31.6795 65.6528 31.4473 65.1391 31.2233 64.6417C30.7288 63.5461 30.218 62.413 30.4664 61.6399C30.4966 61.5484 30.5256 61.4593 30.5535 61.3713C30.9505 60.1537 31.3254 59.0042 30.6313 57.3291C30.42 56.8188 30.0834 56.447 29.7862 56.1174C29.5947 55.905 29.3764 55.6646 29.3428 55.5309C29.3076 55.3375 29.2947 55.1407 29.3045 54.9443C29.3045 54.3344 29.3149 53.4124 28.4037 52.5537C27.1198 51.3443 25.6178 51.7162 24.6299 51.9672C24.3514 52.0426 24.0689 52.1018 23.7837 52.1443C22.1528 52.3367 20.6971 51.7174 19.7882 50.4446C18.8375 49.1144 18.6994 47.3232 19.4284 45.7713C19.7766 45.0206 20.3141 44.4165 20.9316 43.7185C21.0663 43.566 21.2021 43.4124 21.3379 43.2493C21.5701 42.9877 21.8138 42.6323 22.0762 42.2558C22.3931 41.7983 22.9793 40.9619 23.2335 40.8036H23.2381Z" fill="#292C56"/>
<path d="M11.7915 56.7073C11.9332 56.8159 12.0976 56.8901 12.2721 56.9243L15.1567 57.4909C15.3361 57.5253 15.5061 57.5981 15.6553 57.7046C15.8045 57.811 15.9294 57.9485 16.0215 58.1079C16.1147 58.2651 16.1733 58.4408 16.1934 58.623C16.2134 58.8052 16.1944 58.9896 16.1376 59.1636C15.8984 59.8957 15.8984 60.6861 16.1376 61.4182L16.5055 62.5572C16.5575 62.7195 16.5772 62.8905 16.5637 63.0605C16.5503 63.2305 16.5038 63.3962 16.4269 63.548C16.35 63.6999 16.2443 63.8349 16.1158 63.9455C15.9873 64.056 15.8385 64.1399 15.6779 64.1924L14.524 64.5689C14.2327 64.6647 13.9907 64.873 13.8508 65.1484C14.5635 68.6557 14.6633 72.0692 14.5333 74.7578C18.5556 77.5359 23.1922 79.272 28.0347 79.8133C32.8773 80.3545 37.7772 79.6843 42.3031 77.8616C42.3518 77.8417 42.3962 77.8123 42.4336 77.775C42.4711 77.7378 42.5009 77.6935 42.5214 77.6446C43.0751 76.3472 41.9978 75.4686 41.0901 75.8217C36.7793 77.5141 32.1128 78.0683 27.5312 77.4321C22.9496 76.7958 18.604 74.9901 14.9048 72.1853L15.9495 66.6991L16.4498 66.5349C17.3607 66.2356 18.1168 65.5833 18.5521 64.7212C18.9874 63.859 19.0662 62.8575 18.7714 61.9366L18.3071 60.5067C18.2758 60.4087 18.2803 60.3026 18.3199 60.2076C18.5181 59.709 18.6049 59.1723 18.5741 58.6359C18.5433 58.0995 18.3957 57.5765 18.1418 57.1044C17.8878 56.6323 17.5338 56.2227 17.1051 55.9049C16.6764 55.587 16.1835 55.3687 15.6616 55.2657L13.0417 54.7484L7.98642 50.8645C7.84942 50.7597 7.6911 50.6869 7.52288 50.6514C7.35466 50.6159 7.18074 50.6185 7.01367 50.6592C7.66952 51.932 8.49949 53.3478 9.55582 54.9853L11.7915 56.7073Z" fill="#292C56"/>
<path d="M13.2784 67.8675L12.8083 70.3402C10.7198 68.4151 8.93653 66.177 7.52088 63.7044C5.79665 60.7084 4.65226 57.4083 4.14876 53.9801L5.3467 53.5895C4.94971 52.9357 4.574 52.2632 4.21957 51.5719L3.95607 51.6587C3.9433 51.4346 3.93401 51.2106 3.92705 50.9865C3.65697 50.4329 3.39966 49.8682 3.15512 49.2927C2.90516 48.703 2.6699 48.1028 2.44935 47.4921C2.43426 47.4475 2.41801 47.4029 2.40292 47.3595C2.3116 47.1023 2.22222 46.8434 2.13477 46.583C2.11504 46.522 2.09414 46.4657 2.07441 46.4C2.00476 46.1865 1.93705 45.9723 1.87127 45.7572C1.11136 51.1799 1.83312 56.7093 3.95847 61.7474C6.08382 66.7855 9.53187 71.1405 13.9297 74.3414V73.6071C13.9303 71.675 13.7118 69.7492 13.2784 67.8675Z" fill="#292C56"/>
<path d="M49.1087 60.2323L48.5504 58.1138C48.4907 57.8867 48.3648 57.683 48.1892 57.529C48.0136 57.375 47.7962 57.2779 47.5653 57.2502C47.3344 57.2226 47.1006 57.2656 46.8941 57.3738C46.6877 57.4819 46.5182 57.6503 46.4076 57.8569C46.281 58.0915 46.1661 58.3426 46.0593 58.5842C45.8724 58.9912 45.6797 59.4112 45.4789 59.6399C45.3628 59.7701 45.0761 59.9109 44.7975 60.0458C44.1289 60.3707 43.2142 60.8153 42.8636 61.9367C42.7056 62.4696 42.6793 63.0334 42.787 63.5789C42.8381 63.9308 42.8509 64.0481 42.758 64.2675L42.7464 64.2945C42.3761 65.1672 41.6889 66.7907 42.6535 68.1713C43.3407 69.1555 44.0639 69.4088 44.6269 69.4088C44.7307 69.4093 44.8344 69.4011 44.9368 69.3842C46.1197 69.1895 47.01 67.9508 47.7378 65.4851L49.1029 60.8552C49.1608 60.6519 49.1628 60.4366 49.1087 60.2323ZM45.5103 64.8282C45.1388 66.0857 44.8138 66.6722 44.6223 66.9326C44.6002 66.9044 44.577 66.8728 44.5514 66.8364C44.3297 66.5185 44.6606 65.7361 44.88 65.2176L44.8916 65.1907C45.2398 64.3555 45.1516 63.7138 45.0819 63.2446C45.0378 62.9455 45.0227 62.8165 45.0819 62.6393C45.1284 62.4939 45.4 62.3519 45.8098 62.1525C45.9908 62.0646 46.1917 61.9672 46.3902 61.8499L45.5103 64.8282Z" fill="#292C56"/>
<path d="M32.781 33.8803C32.6343 33.8126 32.4753 33.7765 32.3141 33.7744C32.1528 33.7722 31.9929 33.8041 31.8445 33.8678C31.6961 33.9316 31.5625 34.0259 31.4522 34.1447C31.3418 34.2636 31.2572 34.4043 31.2037 34.558C31.1502 34.7118 31.129 34.8751 31.1414 35.0375C31.1538 35.2 31.1995 35.3581 31.2757 35.5017C31.3519 35.6453 31.4569 35.7713 31.584 35.8716C31.711 35.9719 31.8574 36.0444 32.0137 36.0844L32.0915 36.1126C32.3815 36.2155 32.7001 36.1979 32.9773 36.0638C33.2545 35.9296 33.4678 35.6899 33.5703 35.397C33.6208 35.2522 33.6424 35.0987 33.6339 34.9454C33.6255 34.792 33.5872 34.6419 33.5212 34.5036C33.4552 34.3653 33.3628 34.2415 33.2493 34.1394C33.1358 34.0373 33.0035 33.9588 32.8599 33.9085L32.781 33.8803Z" fill="#292C56"/>
<path d="M13.9295 74.3483C13.9295 76.3612 13.9144 78.2111 13.8923 79.8498C14.0966 79.0791 14.4066 77.2269 14.525 74.7706V74.7624C14.3242 74.624 14.1257 74.4844 13.9283 74.3413L13.9295 74.3483Z" fill="#292C56"/>
</svg>
