<svg width="56" height="56" viewBox="0 0 56 56" fill="none" xmlns="http://www.w3.org/2000/svg">
<path d="M53.59 28.9448H46.0353C44.7043 28.9448 43.6254 30.0238 43.6254 31.3548V39.1015C43.6254 40.4325 44.7043 41.5115 46.0353 41.5115H53.59C54.921 41.5115 56 40.4325 56 39.1015V31.3548C56 30.0238 54.921 28.9448 53.59 28.9448Z" fill="#C3262E"/>
<path d="M39.0348 28.9448H31.4802C30.1492 28.9448 29.0702 30.0238 29.0702 31.3548V39.1015C29.0702 40.4325 30.1492 41.5115 31.4802 41.5115H39.0348C40.3658 41.5115 41.4448 40.4325 41.4448 39.1015V31.3548C41.4448 30.0238 40.3658 28.9448 39.0348 28.9448Z" fill="#666666"/>
<path d="M24.4676 28.9448H16.9129C15.5819 28.9448 14.5029 30.0238 14.5029 31.3548V39.1015C14.5029 40.4325 15.5819 41.5115 16.9129 41.5115H24.4676C25.7986 41.5115 26.8775 40.4325 26.8775 39.1015V31.3548C26.8775 30.0238 25.7986 28.9448 24.4676 28.9448Z" fill="#999999"/>
<path d="M24.4676 43.4333H16.9129C15.5819 43.4333 14.5029 44.5123 14.5029 45.8433V53.5901C14.5029 54.9211 15.5819 56 16.9129 56H24.4676C25.7986 56 26.8775 54.9211 26.8775 53.5901V45.8433C26.8775 44.5123 25.7986 43.4333 24.4676 43.4333Z" fill="#4D4D4D"/>
<path d="M39.0348 14.4558H31.4802C30.1492 14.4558 29.0702 15.5348 29.0702 16.8658V24.6125C29.0702 25.9435 30.1492 27.0225 31.4802 27.0225H39.0348C40.3658 27.0225 41.4448 25.9435 41.4448 24.6125V16.8658C41.4448 15.5348 40.3658 14.4558 39.0348 14.4558Z" fill="#EB1C26"/>
<path d="M24.4676 14.4558H16.9129C15.5819 14.4558 14.5029 15.5348 14.5029 16.8658V24.6125C14.5029 25.9435 15.5819 27.0225 16.9129 27.0225H24.4676C25.7986 27.0225 26.8775 25.9435 26.8775 24.6125V16.8658C26.8775 15.5348 25.7986 14.4558 24.4676 14.4558Z" fill="#F25827"/>
<path d="M39.0348 0H31.4802C30.1492 0 29.0702 1.07898 29.0702 2.40996V10.1567C29.0702 11.4877 30.1492 12.5667 31.4802 12.5667H39.0348C40.3658 12.5667 41.4448 11.4877 41.4448 10.1567V2.40996C41.4448 1.07898 40.3658 0 39.0348 0Z" fill="#C2272D"/>
<path d="M9.96464 14.4558H2.40996C1.07898 14.4558 0 15.5348 0 16.8658V24.6125C0 25.9435 1.07898 27.0225 2.40996 27.0225H9.96464C11.2956 27.0225 12.3746 25.9435 12.3746 24.6125V16.8658C12.3746 15.5348 11.2956 14.4558 9.96464 14.4558Z" fill="#808080"/>
</svg>
